<svg width="866" height="691" viewBox="0 0 866 691" fill="none" xmlns="http://www.w3.org/2000/svg">
<g clip-path="url(#clip0_4_146)">
<path d="M495.95 630.018C487.41 557.59 474.928 497.9 458.505 450.947C442.082 403.994 425.659 357.041 409.236 310.088" stroke="#806559" stroke-width="5" stroke-linecap="round"/>
<path d="M458.505 450.947C422.046 418.73 385.588 386.513 349.129 354.296C324.823 332.817 301.502 308.155 279.167 280.308" stroke="#806559" stroke-width="3.5" stroke-linecap="round"/>
<path d="M409.236 310.088C402.995 280.243 392.238 252.489 376.965 226.827C364.237 205.443 351.509 184.058 338.781 162.673" stroke="#806559" stroke-width="2.5" stroke-linecap="round"/>
<path d="M376.964 226.827C343.626 209.533 314.311 191.739 289.02 173.445C269.805 160.521 250.886 146.641 232.263 131.807" stroke="#806559" stroke-width="2" stroke-linecap="round"/>
<path d="M338.781 162.673C336.646 144.566 331.957 128.461 324.715 114.356" stroke="#806559" stroke-width="1.5" stroke-linecap="round"/>
<path d="M349.129 354.296C347.979 333.004 345.844 314.897 342.723 299.975C338.585 283.341 333.699 267.872 328.066 253.568" stroke="#806559" stroke-width="1.5" stroke-linecap="round"/>
<path d="M295.989 302.364C271.926 293.446 251.895 284.589 235.897 275.795C218.312 265.266 202.346 254.334 188 243" stroke="#806559" stroke-width="1.5" stroke-linecap="round"/>
<path d="M328.066 253.568C312.776 240.462 297.289 227.994 281.606 216.162" stroke="#806559" stroke-width="1.2" stroke-linecap="round"/>
<path d="M280.344 166.848C278.553 153.441 277.196 140.158 276.274 127" stroke="#806559" stroke-width="1.2" stroke-linecap="round"/>
<path d="M328.066 253.568C328.871 238.464 328.025 224.943 325.528 213.005" stroke="#806559" stroke-width="1.2" stroke-linecap="round"/>
<path d="M412.832 305.967C409.322 304.881 407.8 299.723 409.433 294.447C411.065 289.171 415.234 285.774 418.744 286.861C422.255 287.947 423.777 293.104 422.144 298.38C420.511 303.656 416.343 307.053 412.832 305.967Z" fill="#DEC9CC"/>
<path d="M411.621 306.315C409.604 308.99 403.868 308.441 398.809 305.089C393.75 301.737 391.283 296.851 393.299 294.176C395.315 291.501 401.051 292.05 406.111 295.402C411.17 298.754 413.637 303.64 411.621 306.315Z" fill="#DEC9CC"/>
<path d="M411.675 307.502C413.939 310.242 411.916 315.06 407.157 318.264C402.397 321.469 396.703 321.846 394.44 319.106C392.176 316.367 394.198 311.549 398.958 308.344C403.717 305.14 409.411 304.763 411.675 307.502Z" fill="#DEC9CC"/>
<path d="M412.92 307.888C416.336 306.906 420.821 310.432 422.939 315.765C425.057 321.097 424.005 326.216 420.59 327.198C417.174 328.18 412.689 324.653 410.571 319.321C408.453 313.988 409.505 308.87 412.92 307.888Z" fill="#DEC9CC"/>
<path d="M413.636 306.939C413.482 303.592 418.278 300.954 424.346 301.045C430.414 301.136 435.458 303.923 435.611 307.269C435.764 310.615 430.969 313.254 424.9 313.163C418.832 313.072 413.789 310.285 413.636 306.939Z" fill="#DEC9CC"/>
<path d="M411.207 311.221C408.574 310.406 407.035 307.821 407.77 305.447C408.505 303.073 411.234 301.809 413.867 302.623C416.5 303.438 418.038 306.023 417.303 308.397C416.569 310.771 413.839 312.036 411.207 311.221Z" fill="#A85870"/>
<path d="M375.353 223.251C372.022 223.308 368.981 219.286 368.561 214.266C368.141 209.247 370.501 205.132 373.831 205.075C377.162 205.018 380.203 209.041 380.623 214.06C381.043 219.079 378.683 223.195 375.353 223.251Z" fill="#DEC9CC"/>
<path d="M374.368 223.967C373.583 226.902 368.639 228.095 363.326 226.633C358.013 225.17 354.342 221.606 355.127 218.671C355.912 215.736 360.856 214.542 366.169 216.005C371.482 217.467 375.153 221.032 374.368 223.967Z" fill="#DEC9CC"/>
<path d="M374.861 225.089C377.706 226.846 377.692 231.607 374.828 235.722C371.964 239.837 367.336 241.749 364.491 239.992C361.645 238.236 361.66 233.475 364.524 229.36C367.387 225.244 372.015 223.332 374.861 225.089Z" fill="#DEC9CC"/>
<path d="M376.15 225.067C378.694 223.218 383.628 224.967 387.172 228.973C390.715 232.979 391.525 237.725 388.982 239.574C386.438 241.423 381.504 239.674 377.96 235.668C374.417 231.662 373.606 226.916 376.15 225.067Z" fill="#DEC9CC"/>
<path d="M376.454 223.931C375.18 221.032 378.245 217.352 383.299 215.712C388.352 214.073 393.481 215.094 394.755 217.994C396.028 220.893 392.964 224.573 387.91 226.213C382.856 227.852 377.727 226.831 376.454 223.931Z" fill="#DEC9CC"/>
<path d="M374.255 228.082C371.915 227.358 370.547 225.061 371.2 222.95C371.853 220.84 374.279 219.716 376.619 220.44C378.96 221.164 380.327 223.462 379.674 225.572C379.021 227.683 376.595 228.807 374.255 228.082Z" fill="#A85870"/>
<path d="M277.445 272.703C274.423 272.27 272.38 268.121 272.883 263.438C273.387 258.754 276.245 255.308 279.267 255.742C282.289 256.175 284.332 260.323 283.829 265.007C283.325 269.69 280.467 273.136 277.445 272.703Z" fill="#DEC9CC"/>
<path d="M276.887 272.973C275.672 275.459 270.851 275.734 266.12 273.586C261.389 271.438 258.539 267.681 259.754 265.195C260.97 262.708 265.791 262.434 270.522 264.582C275.253 266.73 278.103 270.487 276.887 272.973Z" fill="#DEC9CC"/>
<path d="M277.026 273.559C279.298 275.529 278.361 279.847 274.933 283.203C271.506 286.559 266.887 287.683 264.616 285.713C262.344 283.743 263.282 279.426 266.709 276.069C270.136 272.713 274.755 271.589 277.026 273.559Z" fill="#DEC9CC"/>
<path d="M277.67 273.651C280.289 272.382 284.53 274.777 287.143 278.999C289.757 283.221 289.752 287.672 287.132 288.941C284.513 290.21 280.272 287.816 277.659 283.594C275.046 279.372 275.051 274.92 277.67 273.651Z" fill="#DEC9CC"/>
<path d="M277.928 273.122C277.276 270.368 280.834 267.53 285.876 266.783C290.919 266.036 295.535 267.664 296.187 270.418C296.84 273.172 293.281 276.01 288.239 276.757C283.197 277.504 278.581 275.876 277.928 273.122Z" fill="#DEC9CC"/>
<path d="M276.357 276.545C274.309 275.912 273.113 273.901 273.684 272.054C274.255 270.208 276.378 269.224 278.426 269.858C280.474 270.492 281.67 272.502 281.099 274.349C280.527 276.195 278.404 277.179 276.357 276.545Z" fill="#A85870"/>
<path d="M337.402 159.629C334.769 158.815 333.627 154.947 334.852 150.99C336.076 147.033 339.203 144.485 341.836 145.3C344.468 146.114 345.61 149.983 344.385 153.94C343.161 157.897 340.034 160.444 337.402 159.629Z" fill="#DEC9CC"/>
<path d="M336.796 159.804C335.283 161.81 330.982 161.398 327.187 158.884C323.392 156.37 321.542 152.706 323.054 150.7C324.567 148.693 328.869 149.105 332.663 151.619C336.458 154.133 338.308 157.797 336.796 159.804Z" fill="#DEC9CC"/>
<path d="M336.823 160.397C338.521 162.452 337.004 166.066 333.434 168.469C329.864 170.872 325.594 171.155 323.896 169.1C322.198 167.046 323.715 163.432 327.285 161.029C330.855 158.625 335.125 158.343 336.823 160.397Z" fill="#DEC9CC"/>
<path d="M337.445 160.59C340.007 159.853 343.371 162.498 344.96 166.498C346.548 170.497 345.759 174.336 343.198 175.073C340.636 175.809 337.272 173.164 335.683 169.165C334.095 165.166 334.884 161.326 337.445 160.59Z" fill="#DEC9CC"/>
<path d="M337.803 160.115C337.688 157.606 341.285 155.627 345.836 155.695C350.387 155.763 354.17 157.853 354.285 160.363C354.399 162.873 350.803 164.852 346.252 164.784C341.7 164.715 337.918 162.625 337.803 160.115Z" fill="#DEC9CC"/>
<path d="M336.367 162.973C334.612 162.43 333.586 160.707 334.076 159.124C334.566 157.541 336.385 156.698 338.141 157.241C339.896 157.784 340.921 159.508 340.432 161.09C339.942 162.673 338.122 163.516 336.367 162.973Z" fill="#A85870"/>
<path d="M232.717 129.4C230.364 129.829 227.66 127.291 226.678 123.733C225.696 120.175 226.807 116.943 229.16 116.515C231.513 116.087 234.217 118.624 235.199 122.182C236.182 125.741 235.07 128.972 232.717 129.4Z" fill="#DEC9CC"/>
<path d="M232.305 129.835C232.153 132.05 228.835 133.49 224.895 133.052C220.955 132.615 217.884 130.464 218.037 128.249C218.189 126.034 221.506 124.594 225.447 125.032C229.387 125.47 232.457 127.62 232.305 129.835Z" fill="#DEC9CC"/>
<path d="M232.652 130.354C234.911 131.295 235.564 134.722 234.111 138.01C232.658 141.298 229.649 143.2 227.39 142.26C225.131 141.319 224.478 137.891 225.931 134.603C227.384 131.316 230.393 129.413 232.652 130.354Z" fill="#DEC9CC"/>
<path d="M233.278 130.24C234.826 128.607 238.548 129.285 241.59 131.754C244.632 134.224 245.843 137.551 244.295 139.184C242.746 140.817 239.025 140.139 235.983 137.67C232.94 135.2 231.729 131.874 233.278 130.24Z" fill="#DEC9CC"/>
<path d="M233.318 129.651C232.016 127.701 233.663 124.692 236.996 122.931C240.329 121.169 244.086 121.323 245.388 123.273C246.69 125.223 245.044 128.232 241.711 129.993C238.378 131.754 234.62 131.601 233.318 129.651Z" fill="#DEC9CC"/>
<path d="M232.026 132.571C230.388 132.064 229.431 130.456 229.888 128.978C230.345 127.501 232.044 126.714 233.682 127.221C235.32 127.728 236.277 129.337 235.82 130.814C235.363 132.291 233.664 133.078 232.026 132.571Z" fill="#A85870"/>
<path d="M280.842 214.879C278.413 214.726 276.479 211.444 276.523 207.549C276.567 203.653 278.572 200.62 281.001 200.773C283.431 200.926 285.364 204.208 285.32 208.104C285.276 211.999 283.271 215.032 280.842 214.879Z" fill="#DEC9CC"/>
<path d="M280.842 214.879C280.067 216.949 276.173 217.444 272.143 215.985C268.113 214.527 265.474 211.666 266.249 209.597C267.024 207.527 270.918 207.032 274.948 208.491C278.978 209.949 281.617 212.81 280.842 214.879Z" fill="#DEC9CC"/>
<path d="M280.842 214.879C282.792 216.312 282.319 219.9 279.785 222.893C277.25 225.887 273.614 227.153 271.664 225.721C269.713 224.289 270.186 220.7 272.721 217.707C275.255 214.713 278.891 213.447 280.842 214.879Z" fill="#DEC9CC"/>
<path d="M280.842 214.879C282.822 213.695 286.424 215.417 288.888 218.726C291.351 222.035 291.743 225.678 289.762 226.862C287.782 228.047 284.18 226.324 281.717 223.015C279.253 219.706 278.862 216.064 280.842 214.879Z" fill="#DEC9CC"/>
<path d="M280.842 214.879C280.115 212.715 282.815 210.191 286.872 209.243C290.928 208.294 294.806 209.279 295.533 211.444C296.26 213.608 293.56 216.132 289.504 217.08C285.447 218.029 281.569 217.044 280.842 214.879Z" fill="#DEC9CC"/>
<path d="M280.014 217.554C278.376 217.047 277.419 215.439 277.876 213.962C278.333 212.484 280.031 211.698 281.67 212.204C283.308 212.711 284.265 214.32 283.808 215.797C283.351 217.274 281.652 218.061 280.014 217.554Z" fill="#A85870"/>
<path d="M326.12 211.094C324.03 210.624 322.879 207.61 323.549 204.362C324.219 201.113 326.456 198.861 328.545 199.331C330.635 199.802 331.786 202.816 331.116 206.064C330.446 209.313 328.209 211.565 326.12 211.094Z" fill="#DEC9CC"/>
<path d="M326.12 211.094C325.102 212.751 321.684 212.659 318.484 210.889C315.284 209.118 313.515 206.34 314.532 204.683C315.549 203.026 318.968 203.119 322.168 204.889C325.368 206.659 327.137 209.438 326.12 211.094Z" fill="#DEC9CC"/>
<path d="M326.119 211.094C327.58 212.589 326.618 215.546 323.971 217.7C321.323 219.854 317.993 220.389 316.532 218.895C315.071 217.401 316.033 214.443 318.681 212.289C321.328 210.135 324.659 209.6 326.119 211.094Z" fill="#DEC9CC"/>
<path d="M326.12 211.094C328.04 210.361 330.864 212.281 332.427 215.383C333.991 218.484 333.702 221.593 331.782 222.327C329.862 223.06 327.037 221.14 325.474 218.038C323.91 214.937 324.199 211.828 326.12 211.094Z" fill="#DEC9CC"/>
<path d="M326.119 211.094C325.845 209.147 328.553 207.376 332.167 207.139C335.78 206.902 338.932 208.288 339.206 210.236C339.48 212.183 336.773 213.954 333.159 214.191C329.545 214.428 326.394 213.042 326.119 211.094Z" fill="#DEC9CC"/>
<path d="M325.381 213.483C323.918 213.03 323.063 211.594 323.471 210.275C323.879 208.956 325.396 208.254 326.859 208.706C328.321 209.159 329.176 210.595 328.768 211.914C328.36 213.233 326.843 213.935 325.381 213.483Z" fill="#A85870"/>
<path d="M324.39 111.7C322.508 110.796 322.194 107.875 323.689 105.177C325.184 102.479 327.922 101.024 329.804 101.929C331.686 102.833 332 105.753 330.505 108.451C329.01 111.15 326.272 112.604 324.39 111.7Z" fill="#DEC9CC"/>
<path d="M323.81 111.68C322.305 113.032 319.141 112.342 316.743 110.139C314.345 107.935 313.62 105.053 315.125 103.7C316.63 102.348 319.794 103.038 322.192 105.241C324.59 107.445 325.315 110.328 323.81 111.68Z" fill="#DEC9CC"/>
<path d="M323.832 112.303C324.821 114.036 323.209 116.508 320.233 117.824C317.256 119.139 314.042 118.8 313.053 117.066C312.064 115.333 313.676 112.861 316.653 111.545C319.629 110.23 322.844 110.569 323.832 112.303Z" fill="#DEC9CC"/>
<path d="M324.397 112.684C326.531 112.43 328.727 114.663 329.303 117.672C329.878 120.681 328.615 123.325 326.481 123.579C324.347 123.833 322.15 121.6 321.575 118.591C320.999 115.582 322.262 112.937 324.397 112.684Z" fill="#DEC9CC"/>
<path d="M324.711 112.262C325.013 110.393 327.979 109.328 331.335 109.883C334.691 110.438 337.167 112.403 336.864 114.272C336.561 116.141 333.596 117.207 330.239 116.652C326.883 116.097 324.408 114.132 324.711 112.262Z" fill="#DEC9CC"/>
<path d="M323.01 114.348C321.656 113.698 321.113 112.173 321.796 110.941C322.479 109.709 324.13 109.237 325.484 109.887C326.837 110.537 327.38 112.062 326.697 113.294C326.014 114.526 324.363 114.998 323.01 114.348Z" fill="#A85870"/>
<path d="M275.3 124.226C273.533 123.9 272.404 121.391 272.778 118.623C273.151 115.855 274.886 113.876 276.652 114.202C278.419 114.529 279.548 117.037 279.174 119.805C278.801 122.573 277.066 124.553 275.3 124.226Z" fill="#DEC9CC"/>
<path d="M275.277 124.234C274.521 125.679 271.676 125.729 268.922 124.346C266.168 122.962 264.548 120.67 265.304 119.224C266.059 117.779 268.904 117.729 271.658 119.113C274.412 120.496 276.032 122.789 275.277 124.234Z" fill="#DEC9CC"/>
<path d="M275.193 124.19C276.533 125.439 275.946 127.986 273.883 129.881C271.82 131.775 269.062 132.299 267.722 131.051C266.383 129.803 266.969 127.255 269.032 125.361C271.095 123.466 273.854 122.942 275.193 124.19Z" fill="#DEC9CC"/>
<path d="M275.219 124.127C276.794 123.43 279.255 124.932 280.717 127.484C282.178 130.035 282.086 132.669 280.511 133.367C278.937 134.064 276.475 132.561 275.014 130.01C273.552 127.459 273.644 124.825 275.219 124.127Z" fill="#DEC9CC"/>
<path d="M275.3 124.146C274.956 122.457 277.076 120.822 280.034 120.494C282.993 120.166 285.67 121.268 286.015 122.957C286.359 124.646 284.239 126.281 281.281 126.609C278.322 126.938 275.645 125.835 275.3 124.146Z" fill="#DEC9CC"/>
<path d="M274.978 126.186C273.793 125.967 272.953 124.887 273.103 123.775C273.252 122.663 274.335 121.939 275.52 122.159C276.706 122.378 277.546 123.458 277.396 124.57C277.246 125.682 276.164 126.406 274.978 126.186Z" fill="#A85870"/>
<path d="M329.667 251.995C327.98 251.336 327.502 248.731 328.597 246.176C329.693 243.622 331.948 242.085 333.634 242.744C335.32 243.403 335.799 246.008 334.703 248.563C333.608 251.117 331.353 252.654 329.667 251.995Z" fill="#DEC9CC"/>
<path d="M329.699 251.951C328.544 253.206 325.691 252.727 323.327 250.882C320.963 249.036 319.983 246.523 321.138 245.269C322.293 244.014 325.146 244.493 327.51 246.338C329.874 248.184 330.854 250.697 329.699 251.951Z" fill="#DEC9CC"/>
<path d="M329.749 251.972C330.741 253.404 329.476 255.704 326.923 257.108C324.369 258.512 321.495 258.489 320.503 257.057C319.511 255.625 320.776 253.326 323.33 251.922C325.883 250.517 328.757 250.54 329.749 251.972Z" fill="#DEC9CC"/>
<path d="M329.739 252.015C331.515 251.658 333.599 253.567 334.393 256.278C335.187 258.989 334.392 261.476 332.616 261.832C330.84 262.188 328.756 260.279 327.961 257.568C327.167 254.857 327.963 252.371 329.739 252.015Z" fill="#DEC9CC"/>
<path d="M329.681 252.006C329.773 250.363 332.323 249.255 335.376 249.531C338.43 249.808 340.83 251.365 340.738 253.008C340.646 254.652 338.096 255.76 335.043 255.483C331.989 255.207 329.588 253.65 329.681 252.006Z" fill="#DEC9CC"/>
<path d="M328.92 253.84C327.79 253.399 327.231 252.211 327.671 251.186C328.111 250.161 329.383 249.688 330.513 250.129C331.642 250.571 332.202 251.759 331.762 252.784C331.322 253.809 330.05 254.282 328.92 253.84Z" fill="#A85870"/>
<path d="M182.833 239.257C180.182 238.934 178.222 235.258 178.455 231.045C178.688 226.832 181.025 223.679 183.676 224.002C186.326 224.325 188.286 228.001 188.053 232.214C187.821 236.427 185.483 239.58 182.833 239.257Z" fill="#DEC9CC"/>
<path d="M182.249 239.575C181.312 241.806 177.093 242.123 172.826 240.283C168.559 238.443 165.859 235.142 166.796 232.912C167.733 230.681 171.951 230.364 176.218 232.204C180.485 234.044 183.185 237.344 182.249 239.575Z" fill="#DEC9CC"/>
<path d="M182.23 240.057C184.38 241.821 183.825 245.718 180.99 248.761C178.154 251.803 174.112 252.839 171.961 251.074C169.811 249.309 170.366 245.412 173.202 242.37C176.037 239.327 180.079 238.292 182.23 240.057Z" fill="#DEC9CC"/>
<path d="M182.936 239.995C185.186 238.801 189.016 240.84 191.491 244.55C193.966 248.259 194.149 252.235 191.9 253.43C189.65 254.624 185.82 252.585 183.345 248.876C180.87 245.166 180.687 241.19 182.936 239.995Z" fill="#DEC9CC"/>
<path d="M183.341 239.5C182.63 236.98 185.582 234.309 189.935 233.536C194.288 232.762 198.395 234.179 199.107 236.699C199.819 239.22 196.866 241.89 192.513 242.664C188.16 243.437 184.053 242.021 183.341 239.5Z" fill="#DEC9CC"/>
<path d="M182.535 242.719C180.754 242.501 179.384 240.951 179.477 239.256C179.57 237.561 181.089 236.363 182.87 236.581C184.652 236.799 186.021 238.35 185.929 240.045C185.836 241.74 184.317 242.937 182.535 242.719Z" fill="#A85870"/>
<path opacity="0.5" d="M189.034 395.14C186.038 395.435 183.045 392.526 182.35 388.643C181.655 384.761 183.521 381.374 186.517 381.08C189.513 380.785 192.505 383.694 193.2 387.577C193.895 391.459 192.03 394.846 189.034 395.14Z" fill="#DEC9CC"/>
<path opacity="0.5" d="M127.266 427.792C125.175 426.547 124.983 423.286 126.838 420.509C128.692 417.733 131.891 416.491 133.982 417.737C136.074 418.983 136.266 422.243 134.411 425.02C132.556 427.797 129.357 429.038 127.266 427.792Z" fill="#DEC9CC"/>
<path opacity="0.5" d="M104.263 336.077C101.774 336.98 98.4337 334.968 96.8024 331.585C95.171 328.201 95.8662 324.727 98.3551 323.825C100.844 322.923 104.184 324.934 105.815 328.318C107.447 331.701 106.752 335.175 104.263 336.077Z" fill="#DEC9CC"/>
<path opacity="0.5" d="M32.6934 428.851C31.2058 427.379 31.9345 424.552 34.3209 422.537C36.7074 420.522 39.8478 420.081 41.3354 421.553C42.8229 423.025 42.0942 425.852 39.7078 427.868C37.3214 429.883 34.1809 430.323 32.6934 428.851Z" fill="#DEC9CC"/>
<path opacity="0.5" d="M80.4669 476.236C78.049 475.89 76.3767 472.929 76.7319 469.623C77.087 466.316 79.335 463.917 81.7529 464.264C84.1709 464.611 85.8431 467.572 85.4879 470.878C85.1328 474.184 82.8848 476.583 80.4669 476.236Z" fill="#DEC9CC"/>
<path opacity="0.5" d="M201.968 469.141C200.214 470.148 197.401 469.028 195.685 466.639C193.969 464.25 194 461.497 195.754 460.489C197.508 459.482 200.321 460.602 202.037 462.991C203.753 465.38 203.722 468.133 201.968 469.141Z" fill="#DEC9CC"/>
<path opacity="0.5" d="M40.9576 368.534C39.4759 367.482 39.7076 364.871 41.4751 362.702C43.2426 360.532 45.8766 359.626 47.3583 360.678C48.84 361.73 48.6083 364.341 46.8408 366.51C45.0733 368.679 42.4393 369.586 40.9576 368.534Z" fill="#DEC9CC"/>
</g>
<defs>
<clipPath id="clip0_4_146">
<rect width="754" height="490" fill="white" transform="matrix(-0.955311 -0.295603 -0.295603 0.955311 865.15 222.885)"/>
</clipPath>
</defs>
</svg>
